<?xml version="1.0" encoding="UTF-8" standalone="no"?>
<!-- Created with Inkscape (http://www.inkscape.org/) -->

<svg
   xmlns:osb="http://www.openswatchbook.org/uri/2009/osb"
   xmlns:dc="http://purl.org/dc/elements/1.1/"
   xmlns:cc="http://creativecommons.org/ns#"
   xmlns:rdf="http://www.w3.org/1999/02/22-rdf-syntax-ns#"
   xmlns:svg="http://www.w3.org/2000/svg"
   xmlns="http://www.w3.org/2000/svg"
   xmlns:sodipodi="http://sodipodi.sourceforge.net/DTD/sodipodi-0.dtd"
   xmlns:inkscape="http://www.inkscape.org/namespaces/inkscape"
   width="210mm"
   height="297mm"
   viewBox="0 0 210 297"
   version="1.1"
   id="svg5318"
   inkscape:version="0.92.4 (5da689c313, 2019-01-14)"
   sodipodi:docname="suarez.svg">
  <defs
     id="defs5312">
    <linearGradient
       id="linearGradient873"
       osb:paint="solid">
      <stop
         style="stop-color:#000000;stop-opacity:1;"
         offset="0"
         id="stop871" />
    </linearGradient>
    <linearGradient
       id="linearGradient867"
       osb:paint="solid">
      <stop
         style="stop-color:#000000;stop-opacity:1;"
         offset="0"
         id="stop865" />
    </linearGradient>
  </defs>
  <sodipodi:namedview
     id="base"
     pagecolor="#ffffff"
     bordercolor="#666666"
     borderopacity="1.0"
     inkscape:pageopacity="0.0"
     inkscape:pageshadow="2"
     inkscape:zoom="0.9899495"
     inkscape:cx="402.71668"
     inkscape:cy="536.47145"
     inkscape:document-units="mm"
     inkscape:current-layer="layer1"
     showgrid="false"
     inkscape:window-width="1920"
     inkscape:window-height="1017"
     inkscape:window-x="-8"
     inkscape:window-y="-8"
     inkscape:window-maximized="1"
     inkscape:snap-bbox="true" />
  <metadata
     id="metadata5315">
    <rdf:RDF>
      <cc:Work
         rdf:about="">
        <dc:format>image/svg+xml</dc:format>
        <dc:type
           rdf:resource="http://purl.org/dc/dcmitype/StillImage" />
        <dc:title></dc:title>
      </cc:Work>
    </rdf:RDF>
  </metadata>
  <g
     inkscape:label="Layer 1"
     inkscape:groupmode="layer"
     id="layer1"
     style="fill:#2a2b2a;fill-opacity:1;stroke:#000000;stroke-opacity:1">
    <g
       id="g879"
       style="fill:#000000;fill-opacity:1;stroke:#000000;stroke-width:0.5;stroke-linejoin:round;stroke-miterlimit:4;stroke-dasharray:none;stroke-opacity:1"
       transform="translate(9.3544334,-20.579753)">
      <g
         id="g838">
        <path
           style="stroke-width:0.13229167"
           inkscape:connector-curvature="0"
           d="m 95.211463,20.462619 c -2.283441,0.0027 -4.464997,0.10759 -6.413501,0.32155 -9.610302,1.055284 -19.642709,3.904936 -25.931107,7.365391 -6.423813,3.534975 -12.249142,9.226741 -16.261205,15.888259 l -0.935182,1.552363 -1.212849,-0.146159 -1.213428,-0.146159 0.735445,0.688741 c 1.118399,1.047376 0.87056,2.292321 -0.518968,2.605222 -0.669541,0.150772 -0.687216,0.18649 -0.236682,0.482069 0.463025,0.303774 0.451634,0.428985 -0.237261,2.589321 -0.398174,1.248658 -0.86257,3.237686 -1.031585,4.420159 -0.276329,1.933221 -0.24577,2.418094 0.303068,4.806838 0.960993,4.182561 0.749523,5.776487 -1.768766,13.309704 -1.429731,4.276883 -1.518468,6.036866 -0.458355,9.086478 1.287674,3.704258 3.409825,12.823382 3.639709,15.640558 0.133722,1.638666 -0.47832,1.559776 -2.649685,-0.341038 -2.009116,-1.75879 -4.603533,-3.079598 -6.04809,-3.079598 -1.203677,0 -2.517068,0.515277 -3.330865,1.307227 -1.27612,1.241849 -0.990328,4.282215 0.839933,8.940835 l 0.802985,2.04417 -2.541733,2.25137 c -3.652595,3.23514 -4.922701,5.82464 -4.307609,8.78287 0.780206,3.7524 4.622062,7.94141 9.612748,10.48089 l 1.70642,0.86823 0.161059,2.07033 c 0.258884,3.32098 1.42001,4.78838 5.106559,6.45408 1.006218,0.45463 2.579932,1.33276 3.49712,1.95135 l 1.667742,1.12466 1.113558,4.22938 1.11356,4.22938 0.132197,9.42905 c 0.159512,11.3864 0.687709,17.58371 2.229429,26.15068 0.370441,2.0585 0.673675,3.93566 0.673675,4.17143 0,0.30446 -1.0507,0.90405 -3.627005,2.06931 -7.335131,3.31764 -13.457407,7.42862 -20.68889,13.89177 -9.514181,8.50332 -15.959591,16.74166 -22.047212,28.17998 -8.6083817,16.17471 -14.1029295,37.02174 -15.2198034,57.74669 -0.1816836,3.37126 -0.1682828,3.5115 0.3302004,3.42574 0.4730939,-0.0813 0.5488575,-0.48445 0.8468594,-4.49452 2.3724847,-31.92532 12.1667334,-57.52702 29.3704986,-76.7735 2.956212,-3.30721 6.144125,-6.3674 6.632866,-6.3674 0.326554,0 0.382155,6.40737 0.382155,43.83694 v 43.83747 h 23.337996 23.337995 v -32.33449 c 0,-27.85859 0.05406,-32.35322 0.391391,-32.46937 0.215345,-0.0741 1.149862,0.32744 2.077028,0.89234 3.412934,2.07946 8.706423,4.06866 13.089666,4.91864 2.18244,0.42321 5.954916,0.53644 7.726221,0.23232 5.030075,-0.8636 10.363265,-2.78905 14.247105,-5.14378 0.90076,-0.54612 1.79063,-0.99288 1.97773,-0.99336 0.26956,-5.3e-4 0.35502,6.72382 0.40987,32.3873 l 0.0687,32.38783 h 23.338 23.33799 l 0.0693,-43.77592 c 0.0548,-34.77589 0.13883,-43.77528 0.40928,-43.77131 0.18724,0.002 1.43234,1.10256 2.76687,2.44522 15.72105,15.81648 25.90222,36.2207 30.61048,61.34681 1.29786,6.92616 2.3304,15.64174 2.65546,22.40849 0.0588,1.22299 0.12123,1.34477 0.67887,1.32723 0.33777,-0.0108 0.61422,0.0719 0.61422,0.18359 0,0.11162 0.0612,0.20308 0.13624,0.20308 0.0751,0 0.13681,-0.39245 0.13681,-0.87183 0,-0.51871 -0.1106,-0.81014 -0.27305,-0.72003 -0.17018,0.0944 -0.27305,-0.3938 -0.27305,-1.29695 0,-3.12707 -0.93354,-11.82946 -1.92348,-17.92783 -3.06992,-18.91187 -9.62328,-36.23606 -18.93628,-50.05973 -9.91679,-14.71991 -23.19067,-26.38851 -37.2041,-32.70579 -1.83472,-0.82709 -3.3905,-1.58384 -3.45786,-1.68159 -0.0673,-0.0978 0.16927,-1.72665 0.52589,-3.61962 1.5706,-8.33683 2.29263,-16.53242 2.47997,-28.13844 l 0.14259,-8.81621 0.94211,-3.5509 c 0.51833,-1.95308 1.05837,-3.79679 1.20014,-4.09707 0.34266,-0.72576 2.95417,-2.4275 5.67287,-3.69654 3.26221,-1.52273 4.33612,-2.90584 4.59798,-5.92123 0.20208,-2.32702 0.3128,-2.6432 0.99118,-2.83241 0.8387,-0.23394 3.94132,-2.08981 5.15909,-3.08627 1.61443,-1.32105 3.53589,-3.6346 4.43923,-5.3448 0.73504,-1.39152 0.84166,-1.85727 0.84166,-3.67501 0,-2.93101 -0.77258,-4.29462 -4.13616,-7.30077 -1.40327,-1.25415 -2.55155,-2.37769 -2.55155,-2.4965 0,-0.11881 0.35987,-1.18665 0.79952,-2.3729 1.10312,-2.97638 1.72385,-5.855599 1.50842,-6.999739 -0.23154,-1.22955 -1.67331,-2.543239 -3.04396,-2.773947 -2.10579,-0.354432 -4.46881,0.657256 -7.37351,3.156525 -1.18387,1.01864 -1.83276,1.411541 -2.14919,1.302611 -0.35582,-0.122506 -0.40979,-0.325775 -0.25284,-0.947728 0.10994,-0.435682 0.24535,-1.309916 0.30076,-1.942634 0.15612,-1.782894 2.19753,-10.608259 2.99142,-12.931742 1.57115,-4.598266 1.54793,-5.227959 -0.39889,-10.897823 -0.60124,-1.751037 -1.28084,-3.900038 -1.51015,-4.775555 -0.52966,-2.022372 -0.5373,-5.603026 -0.0156,-7.346929 0.22162,-0.740824 0.40416,-2.321753 0.4064,-3.512946 0.003,-1.979697 0.0517,-2.17691 0.56572,-2.297518 0.54867,-0.128729 0.54554,-0.148068 -0.12873,-0.779515 -0.4226,-0.395761 -1.07394,-1.690952 -1.6764,-3.334478 -1.2173,-3.32089 -3.36874,-7.340772 -5.56029,-10.388063 -1.06787,-1.484826 -1.56895,-2.39661 -1.39989,-2.548294 0.16906,-0.151686 0.84157,-0.0034 1.87903,0.414373 3.04843,1.227434 2.97522,0.902544 -0.54033,-2.401111 -4.93306,-4.635729 -9.29446,-7.083455 -18.7937,-10.547555 l -4.77694,-1.742114 0.086,-1.409794 0.0854,-1.409281 -0.8584,0.569764 c -0.75941,0.504141 -1.16288,0.569764 -3.4977,0.569764 -1.71916,0 -3.59055,-0.189109 -5.36864,-0.542071 -4.6102,-0.915147 -10.12638,-1.404384 -15.149956,-1.398511 z M 72.420148,55.001287 c 4.872221,-0.01258 10.412934,1.399296 17.469437,4.451952 4.167107,1.80269 4.454738,1.8893 6.277843,1.8893 1.830657,0 2.10557,-0.084 6.551472,-1.99956 7.09392,-3.056484 12.27946,-4.365473 17.19581,-4.34118 1.67341,0.0083 3.41616,0.176975 4.50388,0.436426 4.14364,0.988361 9.32282,3.862718 12.76062,7.081278 l 1.70642,1.59698 v 6.365355 6.365354 l 3.68474,6.15099 3.68473,6.150988 v 5.62738 5.62738 h -0.77297 c -1.19945,0 -1.20419,0.22446 -0.0277,1.42364 1.31455,1.3399 2.80346,3.99423 3.4596,6.16842 0.74808,2.47887 0.66633,8.3932 -0.16222,11.7553 -1.49081,6.04954 -3.04246,9.48716 -9.79344,21.69462 -6.9143,12.50275 -13.33626,25.07417 -17.15886,33.58991 -1.69821,3.78318 -2.82593,5.45794 -5.12676,7.61412 -3.65733,3.42735 -8.17541,5.55539 -13.84128,6.51972 -2.68997,0.45775 -7.971797,0.65143 -10.549084,0.38668 -7.903592,-0.81192 -14.378239,-3.7964 -18.244137,-8.41056 -1.555121,-1.85611 -2.220577,-3.02139 -4.068622,-7.12487 -3.5219,-7.82015 -10.635532,-21.68495 -16.787693,-32.7186 -8.202767,-14.71138 -10.002461,-19.44384 -10.294507,-27.07122 -0.133282,-3.48045 -0.08452,-4.16372 0.430645,-5.9915 0.758963,-2.69279 1.901356,-4.84605 3.284683,-6.19253 0.613336,-0.59699 1.114713,-1.20399 1.114713,-1.34876 0,-0.14477 -0.398772,-0.29781 -0.886691,-0.34001 l -0.887268,-0.0764 v -5.633017 -5.632508 l 3.75343,-6.15458 3.75285,-6.154066 v -6.361763 -6.362279 l 2.388756,-2.066227 c 2.789809,-2.41294 4.957766,-3.788615 8.063929,-5.117105 3.128445,-1.338025 5.272651,-1.790704 8.517664,-1.799038 z m -10.893143,30.46365 c -1.123033,0 -4.573365,0.865048 -5.933789,1.487743 -2.672148,1.223102 -4.600291,3.702116 -4.600291,5.915085 0,1.276141 0.606258,2.883177 1.087583,2.883177 0.162959,0 1.143235,-0.760323 2.178628,-1.68929 2.627355,-2.35729 3.488598,-2.600023 9.15382,-2.584195 3.614725,0.01011 4.813937,0.110456 6.960182,0.582072 6.105538,1.34163 13.422921,4.772759 15.346225,7.196154 0.509248,0.641659 0.632123,0.698661 0.711201,0.330268 0.163665,-0.762485 -0.168614,-1.489522 -1.544206,-3.380119 -1.664586,-2.287787 -3.824729,-4.287704 -5.984591,-5.540197 -2.978659,-1.727314 -7.239536,-2.772183 -15.858845,-3.88937 -0.798767,-0.103477 -0.899347,-0.194869 -0.788552,-0.714898 0.112757,-0.529201 0.0311,-0.59643 -0.727365,-0.59643 z m 69.082845,0.0036 c -0.63746,-0.003 -0.7402,0.07763 -0.60094,0.471298 0.23072,0.652196 -0.3959,0.894294 -2.81594,1.087217 -4.20438,0.335178 -9.93464,1.735309 -13.01001,3.17909 -3.11122,1.460607 -7.96586,6.563974 -8.49284,8.92801 -0.0956,0.429063 -0.11153,0.780027 -0.0358,0.780027 0.0757,0 0.92342,-0.688975 1.88422,-1.530825 2.84909,-2.496359 9.08987,-5.248074 14.34524,-6.325352 3.12113,-0.63979 8.75688,-0.885537 11.04554,-0.481555 2.31325,0.408331 3.04682,0.779715 5.1995,2.630863 1.05143,0.90415 1.96775,1.506171 2.14341,1.408767 0.50242,-0.278588 1.06969,-1.740946 1.06969,-2.757022 0,-1.204529 -1.38561,-3.731709 -2.51287,-4.582726 -1.83923,-1.388541 -5.96269,-2.797163 -8.21921,-2.807792 z M 34.662449,96.460208 c 0.777152,-0.01402 1.648046,0.163337 2.455142,0.526686 1.296733,0.583779 6.614316,5.260926 6.900144,6.068936 0.106808,0.30192 -0.03557,0.88082 -0.355599,1.44364 -0.489291,0.8605 -1.10477,2.59591 -1.521693,4.29246 -0.258872,1.05344 -0.847292,0.80163 -1.956378,-0.83644 -1.814309,-2.67967 -5.895235,-6.6598 -7.733149,-7.54232 -1.167208,-0.560466 -0.775982,-2.736317 0.641926,-3.569873 0.417162,-0.245235 0.965155,-0.372187 1.569607,-0.383089 z m 122.732871,0.0072 c 0.85778,-0.02725 1.60531,0.22585 2.21384,0.771822 0.64161,0.575671 0.83993,0.971779 0.83993,1.679034 0,0.85443 -0.15732,1.041505 -2.03777,2.426236 -2.30299,1.69589 -4.55787,4.03279 -6.23859,6.46536 -1.08544,1.57099 -1.73115,2.0224 -1.93098,1.34928 -0.51439,-1.7327 -1.27842,-3.94889 -1.6816,-4.87863 l -0.49587,-1.14364 1.06333,-1.1826 c 3.16211,-3.51733 6.0756,-5.417225 8.26771,-5.486862 z m -87.870196,1.495438 c -1.386608,0.01841 -2.734932,0.139618 -4.008584,0.366166 -2.628407,0.467525 -6.918927,2.299858 -7.751625,3.310378 -0.504979,0.61281 -0.782011,0.72361 -1.809749,0.72361 -1.930321,0 -3.354406,-0.50672 -4.628,-1.64775 -1.266999,-1.135125 -1.698912,-1.289075 -1.698912,-0.60566 0,0.72498 2.018565,2.27802 3.595832,2.76676 2.035506,0.63072 4.757726,0.61291 5.821221,-0.038 5.552606,-3.398161 11.813064,-3.964023 19.155652,-1.73134 3.160263,0.96098 3.909292,0.96582 3.909292,0.0251 0,-0.61923 -0.831282,-1.08438 -3.265634,-1.827247 -3.033132,-0.925598 -6.268958,-1.382602 -9.319493,-1.3421 z m 52.709646,0.135902 c -4.59938,-0.0024 -7.1366,0.421257 -10.44056,1.743654 -1.26081,0.504628 -1.56903,0.740458 -1.56903,1.198498 0,0.91897 0.79794,1.1179 2.1971,0.5472 1.80277,-0.73534 5.84999,-1.608759 8.32024,-1.795446 3.72728,-0.281699 7.91949,0.580736 10.94394,2.251356 0.88196,0.48718 2.09478,0.96717 2.69529,1.06671 2.28061,0.37801 5.13533,-0.22476 6.67905,-1.41031 1.31467,-1.00964 1.81231,-1.734901 1.42759,-2.080069 -0.17638,-0.158251 -0.5836,0.0701 -1.18514,0.664129 -1.1978,1.18284 -2.68138,1.84316 -4.52524,2.01391 -1.36929,0.12679 -1.54014,0.0854 -2.08049,-0.50309 -0.8655,-0.94259 -3.55888,-2.296734 -6.04809,-3.041135 -1.98802,-0.594545 -2.56287,-0.653521 -6.41466,-0.655407 z M 95.569952,100.1978 c -0.537081,0.0171 -1.070222,0.10899 -1.858821,0.2836 -1.822468,0.40351 -2.593109,0.75335 -2.593109,1.17696 0,0.27663 -0.09278,0.293 1.572491,-0.27488 1.862436,-0.63509 4.50611,-0.64318 6.483931,-0.0195 0.820426,0.2593 1.557906,0.37368 1.639456,0.25539 0.24321,-0.35309 -1.344489,-0.94725 -3.360884,-1.25748 -0.804513,-0.12378 -1.345986,-0.18124 -1.883064,-0.16411 z m -62.626623,1.92058 c 1.150269,0 7.295767,6.76094 7.078522,7.78745 -0.05002,0.23634 -1.141973,0.91778 -2.524413,1.57545 -4.184226,1.99055 -5.730589,3.85839 -5.730589,6.92281 0,2.23125 0.813105,3.66638 3.222913,5.68892 1.992756,1.6725 5.936086,3.60399 7.897095,3.86783 0.807421,0.10862 1.51274,0.42487 2.191907,0.98311 0.862201,0.70868 1.000992,0.97244 1.000992,1.89955 0,0.5922 0.306136,2.55412 0.680027,4.35965 0.373892,1.8055 0.681305,3.53092 0.682336,3.83398 0.0031,0.65158 -0.678171,0.72385 -1.4986,0.15949 -0.300251,-0.20654 -1.554861,-0.8705 -2.787651,-1.47595 -1.232791,-0.60545 -2.549986,-1.42999 -2.927353,-1.83237 -1.182642,-1.261 -1.938355,-4.39749 -1.215737,-5.04582 0.344799,-0.30937 1.720788,0.0144 2.448215,0.57591 0.496408,0.38328 1.343313,0.44472 1.343313,0.0974 0,-0.50858 -1.226938,-1.21219 -3.226953,-1.84981 -2.943763,-0.9385 -5.549178,-2.36584 -7.525333,-4.12323 -3.300123,-2.93479 -4.990786,-5.99368 -4.750381,-8.59466 0.19196,-2.07683 1.121269,-3.44118 4.256814,-6.24997 l 2.860963,-2.56317 -0.996373,-2.70215 c -1.143976,-3.10236 -1.174724,-3.31447 -0.479714,-3.31447 z m 126.436071,0 c 0.28808,0 0.52359,0.0981 0.52359,0.21795 0,0.11983 -0.47972,1.46609 -1.06622,2.9919 l -1.06623,2.77395 2.79632,2.45701 c 3.45136,3.03216 4.36187,4.49628 4.36187,7.01461 0,2.48606 -1.37683,4.78526 -4.61183,7.70233 -2.53324,2.28425 -4.63971,3.48646 -7.64714,4.36374 -1.77552,0.51793 -3.13921,1.27366 -3.13921,1.74006 0,0.50879 0.31252,0.46897 1.77396,-0.22821 1.97616,-0.94272 2.52893,-0.45445 2.0499,1.81186 -0.15146,0.71649 -0.55332,1.75522 -0.89305,2.30777 -0.65534,1.0659 -0.89217,1.22436 -4.64012,3.11191 -2.8959,1.45845 -3.34303,1.51773 -3.09129,0.40873 0.58447,-2.57479 1.52515,-7.75273 1.52515,-8.39466 0,-0.97577 1.40685,-2.20651 2.72993,-2.38829 2.77943,-0.38187 7.17214,-2.6253 9.25195,-4.72478 2.76868,-2.79485 3.04366,-5.90624 0.78394,-8.87365 -0.96652,-1.26921 -2.19742,-2.09356 -4.80407,-3.21704 -1.48632,-0.64062 -1.95673,-0.96455 -1.95753,-1.34722 -0.003,-1.29658 5.92252,-7.72797 7.12008,-7.72797 z m -20.31828,2.61496 c -0.13102,-0.002 -0.21907,0.0198 -0.26958,0.0651 -0.42028,0.37709 -0.0627,0.59863 2.55039,1.57698 2.46792,0.924 2.88304,1.01298 3.12016,0.66874 0.22973,-0.3335 -0.31977,-0.63201 -2.95506,-1.60621 -1.27738,-0.47191 -2.05282,-0.69784 -2.44591,-0.70464 z m -85.793161,0.0774 c -0.549364,-0.002 -4.663331,1.40839 -5.209312,1.78519 -0.187656,0.12952 -0.341169,0.33208 -0.341169,0.45027 0,0.42792 1.274592,0.16878 3.528293,-0.71746 2.213155,-0.8703 3.072294,-1.51502 2.022188,-1.518 z m 64.619371,0.14103 c -1.6089,0.0118 -2.84115,0.0904 -3.01683,0.2477 -0.21236,0.19021 -0.004,0.34254 0.7366,0.53951 2.31525,0.61546 5.16562,0.8496 11.13155,0.9149 5.34396,0.0585 6.6029,0.14588 8.46167,0.58464 3.94687,0.93168 7.17786,2.73625 8.6031,4.8053 0.65352,0.94872 1.36006,1.12265 1.36006,0.33488 0,-0.91729 -3.41868,-3.70336 -5.80852,-4.7335 -2.50497,-1.07975 -6.31576,-1.84536 -9.20404,-1.85032 -1.12595,-0.002 -3.02983,-0.18215 -4.23084,-0.40104 -1.62363,-0.29592 -5.35126,-0.46182 -8.03275,-0.44207 z m -44.805051,0.13283 c -2.007966,0.008 -4.197308,0.0864 -5.165439,0.22872 -0.825702,0.12135 -3.098342,0.33241 -5.049985,0.46874 -1.951652,0.13632 -4.469566,0.4254 -5.595508,0.64258 -2.833579,0.54659 -6.230097,2.01682 -7.903444,3.42115 -1.544545,1.29624 -2.595697,2.66618 -2.335648,3.0437 0.312269,0.45333 0.649939,0.26159 1.506107,-0.8549 1.508372,-1.96699 4.39981,-3.61963 7.954243,-4.54632 1.716646,-0.44754 3.092608,-0.5522 9.51346,-0.72361 5.307805,-0.14171 8.01551,-0.31469 9.245608,-0.59079 2.085312,-0.46803 2.401479,-0.61743 1.906153,-0.89901 -0.241452,-0.1373 -2.067581,-0.19859 -4.075547,-0.19026 z m -34.461468,7.0864 c 0.23528,-0.002 0.362526,0.0826 0.362526,0.25694 0,0.14786 -0.516991,1.20486 -1.148773,2.3488 -0.885394,1.60313 -1.173531,2.43107 -1.257299,3.61141 -0.137089,1.93159 0.148181,2.44306 2.966027,5.31096 1.193002,1.21419 2.169394,2.30403 2.169394,2.42162 0,0.52913 -0.628103,0.42353 -2.429165,-0.40771 -2.511066,-1.15892 -4.971259,-3.164 -5.872599,-4.78683 -1.625961,-2.92751 -0.302808,-6.23064 3.221761,-8.04439 0.903671,-0.46503 1.595991,-0.70775 1.988128,-0.7108 z m 115.172319,0.0405 c 0.78865,0.0412 2.34491,0.84354 3.49077,1.84211 1.29604,1.12944 2.06128,2.47153 2.25772,3.95963 0.3553,2.69157 -2.36714,5.79394 -6.8886,7.85105 -0.89163,0.40566 -1.71331,0.73855 -1.82592,0.74054 -0.60578,0.009 -0.01,-0.97736 1.5292,-2.53137 2.90273,-2.93128 3.45267,-3.7409 3.45267,-5.0848 0,-1.31254 -0.76229,-3.35523 -1.97716,-5.29814 -0.72919,-1.16619 -0.75919,-1.29968 -0.32616,-1.44877 0.0779,-0.0268 0.17482,-0.0361 0.28748,-0.0303 z m -112.875928,0.19949 c 0.122718,-2.6e-4 0.2205,0.11619 0.410441,0.34924 0.211633,0.25968 0.385043,0.96022 0.385043,1.55698 0,1.80681 0.788245,5.98657 1.646382,8.72852 0.445506,1.42351 0.810492,2.69708 0.810492,2.83036 v 5.2e-4 c 0,0.67531 -1.000052,0.0273 -3.051466,-1.97802 -3.406609,-3.33011 -3.856694,-4.00396 -3.66915,-5.49404 0.171927,-1.36595 1.993345,-4.89737 2.909457,-5.64123 0.288579,-0.23453 0.436083,-0.35194 0.558801,-0.35232 z m 110.423678,0.0518 c 0.50628,5.2e-4 1.25351,1.01184 2.35469,3.05908 1.2157,2.26014 1.45131,3.96302 0.68407,4.94582 -0.24199,0.31 -1.56511,1.70832 -2.94005,3.10729 -2.27977,2.31959 -2.91628,2.78227 -3.32394,2.4165 -0.0777,-0.0697 0.20891,-1.24557 0.63673,-2.61292 0.86367,-2.76027 1.46331,-5.72374 1.73471,-8.57313 0.14825,-1.55644 0.40706,-2.343 0.85379,-2.34264 z m -47.10375,8.04593 c -0.53875,-0.008 -0.35687,0.49035 0.54033,1.36364 0.62093,0.60439 1.45596,1.72438 1.85535,2.4888 0.63536,1.21604 0.72621,1.69757 0.72621,3.85142 0,2.35435 -0.0451,2.54374 -1.03159,4.33452 -1.62897,2.95723 -4.46047,4.8577 -8.484755,5.69507 -1.42246,0.29599 -2.058271,0.31423 -3.224648,0.0928 -5.10035,-0.96817 -8.856244,-4.26801 -9.820569,-8.62851 -0.563055,-2.54595 0.326007,-5.25565 2.553858,-7.78438 l 1.081808,-1.22773 -0.772968,0.079 c -0.602858,0.0619 -1.027335,0.41975 -1.927516,1.62468 -1.464507,1.96029 -1.984664,3.54162 -1.984664,6.03252 0,1.71307 -0.07338,2.01931 -0.546101,2.28418 -0.300252,0.16823 -0.545522,0.52511 -0.545522,0.79336 0,1.22481 -2.527177,-0.0159 -3.480379,-1.70877 -1.214818,-2.15753 -0.50819,-4.10051 2.018145,-5.55046 1.138095,-0.65317 1.440613,-0.9418 1.207079,-1.15132 -0.522447,-0.46875 -2.736382,0.76664 -3.906407,2.18008 l -1.026969,1.24107 -3.615461,0.799 c -8.714261,1.92589 -14.522882,4.93628 -16.502503,8.55313 -1.0634,1.94295 -1.073907,4.66474 -0.02598,6.69716 0.790627,1.53337 2.51539,3.87572 3.621812,4.91812 0.393162,0.37041 0.825395,0.67336 0.960583,0.67336 0.712982,0 0.453028,-0.6658 -0.792596,-2.02982 -2.172654,-2.37918 -3.350627,-4.58919 -3.50982,-6.58536 -0.120694,-1.51342 -0.05056,-1.82363 0.732561,-3.25089 0.978413,-1.78316 2.495102,-3.10869 5.222588,-4.56375 2.295771,-1.22475 6.822157,-2.75131 10.541582,-3.55551 2.794035,-0.60411 2.945521,-0.61348 3.285839,-0.19591 0.196198,0.24075 0.356754,0.65772 0.356754,0.92619 0,0.89881 1.100487,2.54082 2.133601,3.18319 0.562579,0.34979 2.00139,0.85827 3.197516,1.12979 1.548228,0.35143 2.292969,0.65053 2.584451,1.0385 0.931667,1.24008 2.066981,2.20734 3.707248,3.15908 l 1.736437,1.00773 -0.16279,1.39646 c -0.153691,1.31943 -0.113701,1.44684 0.719281,2.29803 3.08552,3.153 10.753255,1.16968 9.661825,-2.49906 -0.34692,-1.16612 -0.3156,-1.21751 1.26133,-2.04674 1.41755,-0.74542 2.25438,-1.42122 3.64953,-2.94883 0.84044,-0.9202 1.19234,-1.1155 2.24674,-1.24517 3.4217,-0.42079 5.58358,-2.07484 6.07003,-4.64478 0.24796,-1.30998 0.57108,-1.35351 4.11711,-0.54925 6.78614,1.53916 11.01097,3.33264 13.85051,5.8797 1.63736,1.4687 2.02969,1.98323 2.41185,3.16267 0.31521,0.97297 0.39921,1.78083 0.2719,2.61138 -0.25557,1.66721 -1.69506,4.24481 -3.39322,6.0756 -1.29888,1.40034 -1.62357,2.24675 -0.86129,2.24675 0.4753,0 3.3575,-3.50845 4.22449,-5.14275 1.13208,-2.13401 1.33225,-4.98263 0.47278,-6.72588 -1.18558,-2.40471 -3.51407,-4.26758 -7.6656,-6.13253 -2.50745,-1.12638 -7.54192,-2.62709 -10.68821,-3.18626 -1.29425,-0.23001 -2.46205,-0.48895 -2.59542,-0.5749 -0.13339,-0.0861 -0.57674,-0.61862 -0.98483,-1.18363 -0.80115,-1.10923 -2.96432,-2.41628 -3.62355,-2.18931 -0.65556,0.2257 -0.47061,0.59438 0.50627,1.01029 3.20326,1.36381 4.00398,4.78711 1.60829,6.87461 -1.3977,1.2179 -1.84162,1.2663 -2.83846,0.30975 -0.81919,-0.7861 -0.85036,-0.8959 -0.88611,-3.14113 -0.0313,-1.96622 -0.15047,-2.54567 -0.76951,-3.74116 -0.92934,-1.7948 -2.33197,-3.55564 -2.97988,-3.74014 -0.20114,-0.0573 -0.36405,-0.0859 -0.48837,-0.0877 z M 48.257228,135.1795 c 0.450841,0 0.982135,0.90343 5.860477,9.96445 7.309905,13.57741 13.902834,26.66674 13.630572,27.062 -0.07523,0.10925 -0.228988,0.19847 -0.341745,0.19847 -0.270128,0 -5.343294,-4.6802 -6.769106,-6.24484 -1.724494,-1.89244 -4.628901,-5.83006 -5.675747,-7.69515 -1.933744,-3.4452 -4.387414,-10.82164 -6.139877,-18.45861 -0.880688,-3.83787 -0.996195,-4.82632 -0.564574,-4.82632 z m 95.946242,0.0159 c 0.0956,0.005 0.14086,0.1205 0.14086,0.34104 0,0.68479 -1.67565,7.63349 -2.77842,11.52092 -3.00502,10.59316 -6.05442,15.64454 -13.87476,22.9839 -2.52979,2.37421 -3.48523,2.91274 -3.17038,1.78724 0.23888,-0.85394 5.3752,-11.17587 8.97544,-18.03654 6.92949,-13.20492 10.0384,-18.62878 10.70726,-18.59656 z m -12.71097,1.19542 c -0.46393,-0.0379 -0.53727,0.45081 0.19569,1.23236 1.0321,1.10049 0.58481,1.33599 -1.55748,0.81951 -2.40475,-0.57976 -7.40533,-0.56995 -9.80614,0.0195 -0.97582,0.23957 -3.23725,1.04306 -5.02516,1.78519 -5.78203,2.40003 -16.158651,5.26624 -19.131982,5.2848 -2.856281,0.0178 -12.776026,-2.65508 -18.531619,-4.993 -4.096896,-1.66415 -5.482331,-2.08502 -7.992344,-2.4288 -3.522982,-0.48251 -9.184169,0.26921 -10.186562,1.35287 -0.479304,0.51816 -0.135135,1.10465 0.648278,1.10465 0.540946,0 0.861666,0.31316 1.691411,1.65288 5.017115,8.10067 12.245699,14.67085 19.979997,18.15962 2.285341,1.03086 6.03541,2.13993 8.685651,2.56933 4.698832,0.76132 10.61527,0.38607 15.44205,-0.98004 9.36802,-2.65142 18.74328,-10.2481 24.54392,-19.88789 l 0.93114,-1.54723 1.15051,0.15283 c 1.0634,0.14127 1.16409,0.10635 1.32253,-0.46002 0.23128,-0.82681 -0.3365,-2.32626 -1.19265,-3.14935 -0.47007,-0.45192 -0.88889,-0.66445 -1.16724,-0.6872 z m -32.316903,2.70933 c 0.470895,-0.0169 0.622856,0.0902 0.841093,0.35797 0.20986,0.25749 0.38157,0.67628 0.38157,0.93028 0,0.68369 -1.392358,1.80949 -2.614467,2.11393 -2.823761,0.70341 -5.847198,-0.42547 -5.847198,-2.18316 0,-1.09029 0.569356,-1.32466 2.528454,-1.04157 1.176007,0.16994 2.235831,0.16331 3.435353,-0.021 0.595324,-0.0915 0.992659,-0.14627 1.275195,-0.15641 z m 26.310953,0.0144 c 2.1598,-0.0119 4.06813,0.26363 4.43865,0.76208 0.37891,0.50971 -0.0259,2.42887 -0.74872,3.54781 -0.48675,0.75349 -0.96959,1.12611 -1.84843,1.42723 -0.6542,0.22417 -1.42197,0.37145 -1.70584,0.3272 -0.44055,-0.0687 -0.54061,0.12165 -0.68407,1.30004 -0.29749,2.4437 -2.09238,4.86185 -3.61142,4.86582 -0.37406,0.001 -0.7672,0.27644 -1.06449,0.74515 -0.51682,0.81478 -2.1486,1.5606 -2.92851,1.33851 -0.36023,-0.10259 -0.64472,0.0884 -1.05064,0.70566 -0.70224,1.06787 -1.64437,1.62553 -3.02664,1.79186 -0.84622,0.10184 -1.27433,0.34409 -1.95695,1.1062 -0.87564,0.9776 -2.20964,1.65801 -3.25005,1.65801 -0.30547,0 -0.98615,0.42761 -1.51246,0.95029 -1.13603,1.1282 -2.87361,1.84834 -5.42347,2.24674 -1.598508,0.24975 -2.107638,0.2313 -3.583716,-0.12718 -1.279697,-0.31079 -1.859084,-0.35083 -2.262913,-0.15693 -0.63741,0.30602 -3.168882,0.52577 -4.148859,0.36001 -2.24922,-0.38045 -4.246303,-1.19188 -5.332849,-2.16674 -0.805718,-0.72292 -1.46469,-1.07794 -2.201143,-1.18517 -1.238619,-0.18034 -2.219253,-0.77738 -2.974687,-1.81084 -0.424802,-0.58116 -0.808701,-0.77978 -1.729509,-0.89593 -1.461602,-0.18434 -2.591773,-0.88007 -3.053198,-1.87955 -0.258015,-0.5589 -0.486194,-0.72815 -0.86187,-0.64002 -1.015554,0.23827 -2.425376,-0.32573 -3.000664,-1.20056 -0.371178,-0.56444 -0.756522,-0.84105 -1.171866,-0.84105 -0.340239,0 -0.957095,-0.23868 -1.371023,-0.53079 -0.799311,-0.56412 -2.320844,-3.17861 -2.326986,-3.99963 -0.009,-1.12495 -0.315656,-1.54522 -1.241717,-1.70109 -1.961627,-0.33018 -3.39494,-2.07734 -3.39494,-4.13861 0,-1.48136 0.40069,-1.70592 3.265055,-1.82878 3.058923,-0.13122 6.272035,0.43593 9.01354,1.59134 3.927656,1.65532 8.90884,3.30632 14.061797,4.66068 7.295221,1.91743 7.614492,1.90687 16.651438,-0.5472 3.77633,-1.02551 7.87221,-2.41617 11.65226,-3.95707 1.4553,-0.59323 3.4821,-1.23759 4.50388,-1.43184 1.19885,-0.22791 2.58513,-0.33855 3.88101,-0.34565 z m -73.746055,15.91286 c 0.282594,-0.018 0.742884,0.80993 1.442605,2.26674 1.330105,2.76926 2.830062,5.0137 5.405008,8.08901 2.181784,2.60575 8.631787,8.74054 9.966618,9.47931 0.829787,0.45926 2.492348,3.44692 2.925044,5.2566 0.517092,2.16274 0.295721,4.83458 -0.686379,8.2726 -1.2473,4.36713 -1.650484,7.99756 -1.253837,11.30297 0.88761,7.39664 4.633674,13.84849 11.561625,19.91455 2.082743,1.82364 3.192896,2.44304 3.192896,1.78109 3e-6,-0.1317 -1.320417,-1.42834 -2.934278,-2.88112 -7.685539,-6.9185 -11.306701,-14.38196 -10.902955,-22.47158 0.156368,-3.13304 0.617217,-5.44359 1.700644,-8.52286 0.401994,-1.14253 0.672526,-2.49929 0.672526,-3.375 0,-2.02495 0.395996,-2.06414 2.457451,-0.24308 6.846747,6.04834 18.673194,8.32808 29.932767,5.77046 4.60536,-1.04611 8.31515,-2.86785 11.60607,-5.7002 1.00339,-0.86357 1.95504,-1.49749 2.11513,-1.40877 0.16008,0.0888 0.29094,0.7484 0.29094,1.46621 0,0.7178 0.31507,2.27965 0.69966,3.47038 3.93291,12.17658 1.06157,21.64407 -9.48056,31.26265 -1.47582,1.34652 -2.68316,2.54343 -2.68316,2.66009 0,0.11667 0.22839,0.21232 0.50742,0.21232 0.75947,0 6.76181,-5.68169 8.53902,-8.08285 3.87229,-5.23179 5.5865,-9.73339 5.87607,-15.42773 0.17013,-3.34584 -0.29715,-6.45082 -1.56442,-10.39576 -0.76251,-2.37254 -0.84844,-2.95148 -0.75103,-5.02069 0.0991,-2.10523 0.23038,-2.59168 1.31676,-4.87351 1.02133,-2.14514 1.37716,-2.63981 2.31141,-3.21652 1.50587,-0.92957 6.24191,-5.37813 8.83343,-8.29671 2.60012,-2.92825 4.28919,-5.33416 5.78254,-8.23773 1.52214,-2.95953 1.45778,-2.85664 1.76704,-2.836 0.41536,0.0278 0.48809,6.29686 0.14085,12.14197 -1.15983,19.52382 -4.84281,34.42109 -11.35265,45.91856 -7.06539,12.47865 -17.07133,19.94622 -29.859452,22.28439 -3.295264,0.6025 -3.569385,0.59795 -6.968839,-0.11642 -13.215095,-2.77699 -22.535025,-9.91434 -29.585821,-22.65773 -3.473853,-6.27854 -5.860199,-12.7146 -7.776446,-20.97459 -2.007384,-8.65288 -2.96055,-16.55765 -3.45671,-28.66718 -0.234941,-5.73418 -0.25798,-8.11382 0.213013,-8.14387 z m 57.287995,12.30402 c -0.045,-0.0404 -1.23718,0.47112 -2.64968,1.13697 -6.962317,3.28201 -14.427738,3.19651 -21.103369,-0.24206 -1.036489,-0.53388 -1.934296,-0.92631 -1.995055,-0.87183 -0.193394,0.1735 0.686674,1.83551 1.442605,2.72471 1.372867,1.61492 4.819842,3.50121 8.566154,4.68786 2.274902,0.72056 3.276097,0.71737 5.689027,-0.019 4.554548,-1.38986 8.307458,-3.80973 9.504798,-6.12843 0.34506,-0.6682 0.59065,-1.24776 0.54552,-1.28825 z m 30.4627,80.75878 c 12.30049,-2.6e-4 14.39774,0.0511 14.68352,0.36001 0.38003,0.41086 0.30732,0.75254 -0.70369,3.30217 -0.90157,2.2736 -0.80549,4.0045 0.39485,7.12795 2.15481,5.60708 1.56703,9.9995 -1.76588,13.19636 -1.69937,1.63003 -5.13469,3.18436 -8.39182,3.79707 -2.13668,0.4019 -2.48895,0.5461 -3.10284,1.26823 -0.87398,1.02784 -1.47301,1.02905 -2.34431,0.004 -0.60178,-0.70787 -0.97725,-0.86544 -2.9666,-1.2457 -4.92316,-0.94098 -8.77849,-3.22989 -10.3176,-6.12584 -1.72771,-3.25074 -1.69335,-5.98873 0.1397,-11.17938 0.87182,-2.46846 0.97305,-3.01309 0.84974,-4.57504 -0.0922,-1.16816 -0.38039,-2.24339 -0.84397,-3.1519 -0.79091,-1.55001 -0.86828,-2.11718 -0.34232,-2.50881 0.2524,-0.18791 4.6873,-0.26902 14.71122,-0.26924 z m -95.071095,8.33106 c 1.001488,-0.0204 1.963072,0.31776 2.704524,1.07543 0.979427,1.00083 1.240954,1.92288 0.86995,3.07036 -0.152138,0.47052 -0.277091,1.20622 -0.277091,1.63442 0,0.67456 0.129407,0.81683 0.968087,1.06517 1.944103,0.57568 6.930167,-0.35261 13.981554,-2.60266 4.339264,-1.38461 5.311745,-1.51918 5.473702,-0.75695 0.160042,0.75314 -0.511677,1.18736 -4.454814,2.87703 -4.491423,1.92459 -7.9605,3.14575 -11.891826,4.18733 -2.100646,0.55655 -3.600742,0.78557 -5.714425,0.8713 -2.643954,0.10723 -2.960899,0.0701 -4.094022,-0.47539 -1.858515,-0.89469 -2.770799,-2.22413 -2.927929,-4.26682 -0.101379,-1.31803 -0.0046,-1.96987 0.454314,-3.06011 0.940058,-2.23353 2.996044,-3.58009 4.907976,-3.61911 z m 89.994555,4.97762 c -0.0995,0.003 -0.16971,0.1 -0.16971,0.25744 0,0.43019 0.16375,0.49353 0.39774,0.15385 0.0864,-0.12537 0.0325,-0.2969 -0.12008,-0.38155 -0.0381,-0.0211 -0.0748,-0.0307 -0.10795,-0.0297 z m -110.509107,37.6116 c 2.458654,0.0872 12.293418,0.43593 22.128031,0.78465 -19.669227,-0.69742 -24.586684,-0.87182 -22.128031,-0.78465 z"
           id="path5278" />
      </g>
    </g>
    <ellipse
       style="opacity:0;fill:#000000;fill-opacity:1;fill-rule:evenodd;stroke:#000000;stroke-width:0.69999999;stroke-linejoin:round;stroke-miterlimit:4;stroke-dasharray:none;stroke-opacity:1;paint-order:markers fill stroke"
       id="path826"
       cx="88.708733"
       cy="125.4111"
       rx="31.028015"
       ry="14.434412" />
  </g>
</svg>
